<mxfile host="app.diagrams.net" modified="2024-01-23T13:10:10.277Z" agent="Mozilla/5.0 (Windows NT 10.0; Win64; x64) AppleWebKit/537.36 (KHTML, like Gecko) Chrome/120.0.0.0 Safari/537.36" etag="iy4r8kDJr3zXWa-VVCsg" version="22.1.21" type="github" pages="2">
  <diagram name="第 1 页" id="QhqkplYfsllcconANAAJ">
    <mxGraphModel dx="448" dy="281" grid="1" gridSize="10" guides="1" tooltips="1" connect="1" arrows="1" fold="1" page="1" pageScale="1" pageWidth="827" pageHeight="1169" math="0" shadow="0">
      <root>
        <mxCell id="0" />
        <mxCell id="1" parent="0" />
        <mxCell id="A6QAV37IFlMHekwQ9qaE-193" value="" style="group" vertex="1" connectable="0" parent="1">
          <mxGeometry x="158" y="283.76" width="261" height="136.5" as="geometry" />
        </mxCell>
        <mxCell id="A6QAV37IFlMHekwQ9qaE-167" value="" style="group" vertex="1" connectable="0" parent="A6QAV37IFlMHekwQ9qaE-193">
          <mxGeometry x="17.5" y="28.25" width="226" height="80" as="geometry" />
        </mxCell>
        <mxCell id="A6QAV37IFlMHekwQ9qaE-152" value="" style="group" vertex="1" connectable="0" parent="A6QAV37IFlMHekwQ9qaE-167">
          <mxGeometry width="95" height="80" as="geometry" />
        </mxCell>
        <mxCell id="A6QAV37IFlMHekwQ9qaE-143" value="" style="group" vertex="1" connectable="0" parent="A6QAV37IFlMHekwQ9qaE-152">
          <mxGeometry x="44" y="39.37" width="7" height="1.26" as="geometry" />
        </mxCell>
        <mxCell id="A6QAV37IFlMHekwQ9qaE-137" value="" style="ellipse;whiteSpace=wrap;html=1;aspect=fixed;fillColor=#000000;" vertex="1" parent="A6QAV37IFlMHekwQ9qaE-143">
          <mxGeometry y="0.007227809582748712" width="1.2455443808344935" height="1.2455443808344935" as="geometry" />
        </mxCell>
        <mxCell id="A6QAV37IFlMHekwQ9qaE-138" value="" style="ellipse;whiteSpace=wrap;html=1;aspect=fixed;fillColor=#000000;" vertex="1" parent="A6QAV37IFlMHekwQ9qaE-143">
          <mxGeometry x="2.889679715302492" y="0.007227809582748712" width="1.2455443808344935" height="1.2455443808344935" as="geometry" />
        </mxCell>
        <mxCell id="A6QAV37IFlMHekwQ9qaE-139" value="" style="ellipse;whiteSpace=wrap;html=1;aspect=fixed;fillColor=#000000;" vertex="1" parent="A6QAV37IFlMHekwQ9qaE-143">
          <mxGeometry x="5.754448398576512" y="0.007227809582748712" width="1.2455443808344935" height="1.2455443808344935" as="geometry" />
        </mxCell>
        <mxCell id="A6QAV37IFlMHekwQ9qaE-150" value="" style="group" vertex="1" connectable="0" parent="A6QAV37IFlMHekwQ9qaE-152">
          <mxGeometry width="34" height="80" as="geometry" />
        </mxCell>
        <mxCell id="A6QAV37IFlMHekwQ9qaE-92" value="" style="rounded=0;whiteSpace=wrap;html=1;fillColor=#B3B3B3;strokeColor=none;fillStyle=auto;container=0;" vertex="1" parent="A6QAV37IFlMHekwQ9qaE-150">
          <mxGeometry width="10" height="80" as="geometry" />
        </mxCell>
        <mxCell id="A6QAV37IFlMHekwQ9qaE-93" value="" style="rounded=0;whiteSpace=wrap;html=1;fillColor=#FFB570;strokeColor=none;fillStyle=auto;container=0;" vertex="1" parent="A6QAV37IFlMHekwQ9qaE-150">
          <mxGeometry x="12" width="10" height="80" as="geometry" />
        </mxCell>
        <mxCell id="A6QAV37IFlMHekwQ9qaE-94" value="" style="rounded=0;whiteSpace=wrap;html=1;fillColor=#99FF99;strokeColor=none;fillStyle=auto;container=0;" vertex="1" parent="A6QAV37IFlMHekwQ9qaE-150">
          <mxGeometry x="24" width="10" height="80" as="geometry" />
        </mxCell>
        <mxCell id="A6QAV37IFlMHekwQ9qaE-151" value="" style="group" vertex="1" connectable="0" parent="A6QAV37IFlMHekwQ9qaE-152">
          <mxGeometry x="61" y="15" width="34" height="50" as="geometry" />
        </mxCell>
        <mxCell id="A6QAV37IFlMHekwQ9qaE-96" value="" style="rounded=0;whiteSpace=wrap;html=1;fillColor=#B3B3B3;strokeColor=none;fillStyle=auto;movable=1;resizable=1;rotatable=1;deletable=1;editable=1;locked=0;connectable=1;container=0;" vertex="1" parent="A6QAV37IFlMHekwQ9qaE-151">
          <mxGeometry width="10" height="50" as="geometry" />
        </mxCell>
        <mxCell id="A6QAV37IFlMHekwQ9qaE-97" value="" style="rounded=0;whiteSpace=wrap;html=1;fillColor=#FFB570;strokeColor=none;fillStyle=auto;movable=1;resizable=1;rotatable=1;deletable=1;editable=1;locked=0;connectable=1;container=0;" vertex="1" parent="A6QAV37IFlMHekwQ9qaE-151">
          <mxGeometry x="12" width="10" height="50" as="geometry" />
        </mxCell>
        <mxCell id="A6QAV37IFlMHekwQ9qaE-98" value="" style="rounded=0;whiteSpace=wrap;html=1;fillColor=#99FF99;strokeColor=none;fillStyle=auto;movable=1;resizable=1;rotatable=1;deletable=1;editable=1;locked=0;connectable=1;container=0;" vertex="1" parent="A6QAV37IFlMHekwQ9qaE-151">
          <mxGeometry x="24" width="10" height="50" as="geometry" />
        </mxCell>
        <mxCell id="A6QAV37IFlMHekwQ9qaE-153" value="" style="group;direction=west;rotation=-180;" vertex="1" connectable="0" parent="A6QAV37IFlMHekwQ9qaE-167">
          <mxGeometry x="131" width="95" height="80" as="geometry" />
        </mxCell>
        <mxCell id="A6QAV37IFlMHekwQ9qaE-154" value="" style="group;rotation=-180;" vertex="1" connectable="0" parent="A6QAV37IFlMHekwQ9qaE-153">
          <mxGeometry x="44" y="39.37" width="7.2455443808344935" height="1.26" as="geometry" />
        </mxCell>
        <mxCell id="A6QAV37IFlMHekwQ9qaE-155" value="" style="ellipse;whiteSpace=wrap;html=1;aspect=fixed;fillColor=#000000;rotation=-180;" vertex="1" parent="A6QAV37IFlMHekwQ9qaE-154">
          <mxGeometry x="6" y="0.007227809582748712" width="1.2455443808344935" height="1.2455443808344935" as="geometry" />
        </mxCell>
        <mxCell id="A6QAV37IFlMHekwQ9qaE-156" value="" style="ellipse;whiteSpace=wrap;html=1;aspect=fixed;fillColor=#000000;rotation=-180;" vertex="1" parent="A6QAV37IFlMHekwQ9qaE-154">
          <mxGeometry x="3" y="0.007227809582748712" width="1.2455443808344935" height="1.2455443808344935" as="geometry" />
        </mxCell>
        <mxCell id="A6QAV37IFlMHekwQ9qaE-157" value="" style="ellipse;whiteSpace=wrap;html=1;aspect=fixed;fillColor=#000000;rotation=-180;" vertex="1" parent="A6QAV37IFlMHekwQ9qaE-154">
          <mxGeometry y="0.007227809582748712" width="1.2455443808344935" height="1.2455443808344935" as="geometry" />
        </mxCell>
        <mxCell id="A6QAV37IFlMHekwQ9qaE-158" value="" style="group;rotation=-180;" vertex="1" connectable="0" parent="A6QAV37IFlMHekwQ9qaE-153">
          <mxGeometry x="61" width="34" height="80" as="geometry" />
        </mxCell>
        <mxCell id="A6QAV37IFlMHekwQ9qaE-159" value="" style="rounded=0;whiteSpace=wrap;html=1;fillColor=#B3B3B3;strokeColor=none;fillStyle=auto;container=0;rotation=-180;" vertex="1" parent="A6QAV37IFlMHekwQ9qaE-158">
          <mxGeometry x="24" width="10" height="80" as="geometry" />
        </mxCell>
        <mxCell id="A6QAV37IFlMHekwQ9qaE-160" value="" style="rounded=0;whiteSpace=wrap;html=1;fillColor=#FFB570;strokeColor=none;fillStyle=auto;container=0;rotation=-180;" vertex="1" parent="A6QAV37IFlMHekwQ9qaE-158">
          <mxGeometry x="12" width="10" height="80" as="geometry" />
        </mxCell>
        <mxCell id="A6QAV37IFlMHekwQ9qaE-161" value="" style="rounded=0;whiteSpace=wrap;html=1;fillColor=#99FF99;strokeColor=none;fillStyle=auto;container=0;rotation=-180;" vertex="1" parent="A6QAV37IFlMHekwQ9qaE-158">
          <mxGeometry width="10" height="80" as="geometry" />
        </mxCell>
        <mxCell id="A6QAV37IFlMHekwQ9qaE-162" value="" style="group;rotation=-180;" vertex="1" connectable="0" parent="A6QAV37IFlMHekwQ9qaE-153">
          <mxGeometry y="15" width="34" height="50" as="geometry" />
        </mxCell>
        <mxCell id="A6QAV37IFlMHekwQ9qaE-163" value="" style="rounded=0;whiteSpace=wrap;html=1;fillColor=#B3B3B3;strokeColor=none;fillStyle=auto;movable=1;resizable=1;rotatable=1;deletable=1;editable=1;locked=0;connectable=1;container=0;rotation=-180;" vertex="1" parent="A6QAV37IFlMHekwQ9qaE-162">
          <mxGeometry x="24" width="10" height="50" as="geometry" />
        </mxCell>
        <mxCell id="A6QAV37IFlMHekwQ9qaE-164" value="" style="rounded=0;whiteSpace=wrap;html=1;fillColor=#FFB570;strokeColor=none;fillStyle=auto;movable=1;resizable=1;rotatable=1;deletable=1;editable=1;locked=0;connectable=1;container=0;rotation=-180;" vertex="1" parent="A6QAV37IFlMHekwQ9qaE-162">
          <mxGeometry x="12" width="10" height="50" as="geometry" />
        </mxCell>
        <mxCell id="A6QAV37IFlMHekwQ9qaE-165" value="" style="rounded=0;whiteSpace=wrap;html=1;fillColor=#99FF99;strokeColor=none;fillStyle=auto;movable=1;resizable=1;rotatable=1;deletable=1;editable=1;locked=0;connectable=1;container=0;rotation=-180;" vertex="1" parent="A6QAV37IFlMHekwQ9qaE-162">
          <mxGeometry width="10" height="50" as="geometry" />
        </mxCell>
        <mxCell id="A6QAV37IFlMHekwQ9qaE-166" value="" style="group" vertex="1" connectable="0" parent="A6QAV37IFlMHekwQ9qaE-167">
          <mxGeometry x="110" y="39.5" width="7" height="1" as="geometry" />
        </mxCell>
        <mxCell id="A6QAV37IFlMHekwQ9qaE-41" value="" style="ellipse;whiteSpace=wrap;html=1;aspect=fixed;fillColor=#000000;strokeColor=#000000;movable=1;resizable=1;rotatable=1;deletable=1;editable=1;locked=0;connectable=1;container=0;" vertex="1" parent="A6QAV37IFlMHekwQ9qaE-166">
          <mxGeometry width="1" height="1" as="geometry" />
        </mxCell>
        <mxCell id="A6QAV37IFlMHekwQ9qaE-42" value="" style="ellipse;whiteSpace=wrap;html=1;aspect=fixed;fillColor=#000000;strokeColor=#000000;movable=1;resizable=1;rotatable=1;deletable=1;editable=1;locked=0;connectable=1;container=0;" vertex="1" parent="A6QAV37IFlMHekwQ9qaE-166">
          <mxGeometry x="3" width="1" height="1" as="geometry" />
        </mxCell>
        <mxCell id="A6QAV37IFlMHekwQ9qaE-43" value="" style="ellipse;whiteSpace=wrap;html=1;aspect=fixed;fillColor=#000000;strokeColor=#000000;movable=1;resizable=1;rotatable=1;deletable=1;editable=1;locked=0;connectable=1;container=0;" vertex="1" parent="A6QAV37IFlMHekwQ9qaE-166">
          <mxGeometry x="6" width="1" height="1" as="geometry" />
        </mxCell>
        <mxCell id="A6QAV37IFlMHekwQ9qaE-192" value="" style="group;movable=1;resizable=1;rotatable=1;deletable=1;editable=1;locked=0;connectable=1;" vertex="1" connectable="0" parent="A6QAV37IFlMHekwQ9qaE-193">
          <mxGeometry width="261" height="136.5" as="geometry" />
        </mxCell>
        <mxCell id="A6QAV37IFlMHekwQ9qaE-187" value="" style="group" vertex="1" connectable="0" parent="A6QAV37IFlMHekwQ9qaE-192">
          <mxGeometry width="130.50000000000003" height="136.50000000000009" as="geometry" />
        </mxCell>
        <mxCell id="A6QAV37IFlMHekwQ9qaE-10" value="" style="endArrow=none;html=1;rounded=0;" edge="1" parent="A6QAV37IFlMHekwQ9qaE-187">
          <mxGeometry width="50" height="50" relative="1" as="geometry">
            <mxPoint y="136.50000000000009" as="sourcePoint" />
            <mxPoint as="targetPoint" />
          </mxGeometry>
        </mxCell>
        <mxCell id="A6QAV37IFlMHekwQ9qaE-12" value="" style="endArrow=none;html=1;rounded=0;" edge="1" parent="A6QAV37IFlMHekwQ9qaE-187">
          <mxGeometry width="50" height="50" relative="1" as="geometry">
            <mxPoint as="sourcePoint" />
            <mxPoint x="130.50000000000003" y="34.12500000000002" as="targetPoint" />
          </mxGeometry>
        </mxCell>
        <mxCell id="A6QAV37IFlMHekwQ9qaE-13" value="" style="endArrow=none;html=1;rounded=0;" edge="1" parent="A6QAV37IFlMHekwQ9qaE-187">
          <mxGeometry width="50" height="50" relative="1" as="geometry">
            <mxPoint y="136.50000000000009" as="sourcePoint" />
            <mxPoint x="130.50000000000003" y="102.37500000000003" as="targetPoint" />
          </mxGeometry>
        </mxCell>
        <mxCell id="A6QAV37IFlMHekwQ9qaE-188" value="" style="group;rotation=-180;" vertex="1" connectable="0" parent="A6QAV37IFlMHekwQ9qaE-192">
          <mxGeometry x="130.50000000000003" width="130.50000000000003" height="136.50000000000009" as="geometry" />
        </mxCell>
        <mxCell id="A6QAV37IFlMHekwQ9qaE-189" value="" style="endArrow=none;html=1;rounded=0;" edge="1" parent="A6QAV37IFlMHekwQ9qaE-188">
          <mxGeometry width="50" height="50" relative="1" as="geometry">
            <mxPoint x="130.50000000000003" as="sourcePoint" />
            <mxPoint x="130.50000000000003" y="136.50000000000009" as="targetPoint" />
          </mxGeometry>
        </mxCell>
        <mxCell id="A6QAV37IFlMHekwQ9qaE-190" value="" style="endArrow=none;html=1;rounded=0;" edge="1" parent="A6QAV37IFlMHekwQ9qaE-188">
          <mxGeometry width="50" height="50" relative="1" as="geometry">
            <mxPoint x="130.50000000000003" y="136.50000000000009" as="sourcePoint" />
            <mxPoint y="102.37500000000003" as="targetPoint" />
          </mxGeometry>
        </mxCell>
        <mxCell id="A6QAV37IFlMHekwQ9qaE-191" value="" style="endArrow=none;html=1;rounded=0;" edge="1" parent="A6QAV37IFlMHekwQ9qaE-188">
          <mxGeometry width="50" height="50" relative="1" as="geometry">
            <mxPoint x="130.50000000000003" as="sourcePoint" />
            <mxPoint y="34.12500000000002" as="targetPoint" />
          </mxGeometry>
        </mxCell>
        <mxCell id="f9U-XKOlgLoHalPc9mwB-110" value="" style="group" vertex="1" connectable="0" parent="1">
          <mxGeometry x="158" y="100" width="261" height="136.5" as="geometry" />
        </mxCell>
        <mxCell id="f9U-XKOlgLoHalPc9mwB-89" value="" style="group;movable=1;resizable=1;rotatable=1;deletable=1;editable=1;locked=0;connectable=1;" vertex="1" connectable="0" parent="f9U-XKOlgLoHalPc9mwB-110">
          <mxGeometry width="261" height="136.5" as="geometry" />
        </mxCell>
        <mxCell id="f9U-XKOlgLoHalPc9mwB-90" value="" style="group" vertex="1" connectable="0" parent="f9U-XKOlgLoHalPc9mwB-89">
          <mxGeometry width="130.50000000000003" height="136.50000000000009" as="geometry" />
        </mxCell>
        <mxCell id="f9U-XKOlgLoHalPc9mwB-91" value="" style="endArrow=none;html=1;rounded=0;" edge="1" parent="f9U-XKOlgLoHalPc9mwB-90">
          <mxGeometry width="50" height="50" relative="1" as="geometry">
            <mxPoint y="136.50000000000009" as="sourcePoint" />
            <mxPoint as="targetPoint" />
          </mxGeometry>
        </mxCell>
        <mxCell id="f9U-XKOlgLoHalPc9mwB-92" value="" style="endArrow=none;html=1;rounded=0;" edge="1" parent="f9U-XKOlgLoHalPc9mwB-90">
          <mxGeometry width="50" height="50" relative="1" as="geometry">
            <mxPoint as="sourcePoint" />
            <mxPoint x="130.50000000000003" y="34.12500000000002" as="targetPoint" />
          </mxGeometry>
        </mxCell>
        <mxCell id="f9U-XKOlgLoHalPc9mwB-93" value="" style="endArrow=none;html=1;rounded=0;" edge="1" parent="f9U-XKOlgLoHalPc9mwB-90">
          <mxGeometry width="50" height="50" relative="1" as="geometry">
            <mxPoint y="136.50000000000009" as="sourcePoint" />
            <mxPoint x="130.50000000000003" y="102.37500000000003" as="targetPoint" />
          </mxGeometry>
        </mxCell>
        <mxCell id="f9U-XKOlgLoHalPc9mwB-94" value="" style="group;rotation=-180;" vertex="1" connectable="0" parent="f9U-XKOlgLoHalPc9mwB-89">
          <mxGeometry x="130.50000000000003" width="130.50000000000003" height="136.50000000000009" as="geometry" />
        </mxCell>
        <mxCell id="f9U-XKOlgLoHalPc9mwB-95" value="" style="endArrow=none;html=1;rounded=0;" edge="1" parent="f9U-XKOlgLoHalPc9mwB-94">
          <mxGeometry width="50" height="50" relative="1" as="geometry">
            <mxPoint x="130.50000000000003" as="sourcePoint" />
            <mxPoint x="130.50000000000003" y="136.50000000000009" as="targetPoint" />
          </mxGeometry>
        </mxCell>
        <mxCell id="f9U-XKOlgLoHalPc9mwB-96" value="" style="endArrow=none;html=1;rounded=0;" edge="1" parent="f9U-XKOlgLoHalPc9mwB-94">
          <mxGeometry width="50" height="50" relative="1" as="geometry">
            <mxPoint x="130.50000000000003" y="136.50000000000009" as="sourcePoint" />
            <mxPoint y="102.37500000000003" as="targetPoint" />
          </mxGeometry>
        </mxCell>
        <mxCell id="f9U-XKOlgLoHalPc9mwB-97" value="" style="endArrow=none;html=1;rounded=0;" edge="1" parent="f9U-XKOlgLoHalPc9mwB-94">
          <mxGeometry width="50" height="50" relative="1" as="geometry">
            <mxPoint x="130.50000000000003" as="sourcePoint" />
            <mxPoint y="34.12500000000002" as="targetPoint" />
          </mxGeometry>
        </mxCell>
        <mxCell id="f9U-XKOlgLoHalPc9mwB-107" value="" style="group" vertex="1" connectable="0" parent="f9U-XKOlgLoHalPc9mwB-110">
          <mxGeometry x="17.5" y="28.25" width="226" height="80" as="geometry" />
        </mxCell>
        <mxCell id="f9U-XKOlgLoHalPc9mwB-85" value="" style="group" vertex="1" connectable="0" parent="f9U-XKOlgLoHalPc9mwB-107">
          <mxGeometry x="109.5" y="39.5" width="7" height="1" as="geometry" />
        </mxCell>
        <mxCell id="f9U-XKOlgLoHalPc9mwB-86" value="" style="ellipse;whiteSpace=wrap;html=1;aspect=fixed;fillColor=#000000;strokeColor=#000000;movable=1;resizable=1;rotatable=1;deletable=1;editable=1;locked=0;connectable=1;container=0;" vertex="1" parent="f9U-XKOlgLoHalPc9mwB-85">
          <mxGeometry width="1" height="1" as="geometry" />
        </mxCell>
        <mxCell id="f9U-XKOlgLoHalPc9mwB-87" value="" style="ellipse;whiteSpace=wrap;html=1;aspect=fixed;fillColor=#000000;strokeColor=#000000;movable=1;resizable=1;rotatable=1;deletable=1;editable=1;locked=0;connectable=1;container=0;" vertex="1" parent="f9U-XKOlgLoHalPc9mwB-85">
          <mxGeometry x="3" width="1" height="1" as="geometry" />
        </mxCell>
        <mxCell id="f9U-XKOlgLoHalPc9mwB-88" value="" style="ellipse;whiteSpace=wrap;html=1;aspect=fixed;fillColor=#000000;strokeColor=#000000;movable=1;resizable=1;rotatable=1;deletable=1;editable=1;locked=0;connectable=1;container=0;" vertex="1" parent="f9U-XKOlgLoHalPc9mwB-85">
          <mxGeometry x="6" width="1" height="1" as="geometry" />
        </mxCell>
        <mxCell id="f9U-XKOlgLoHalPc9mwB-103" value="" style="group" vertex="1" connectable="0" parent="f9U-XKOlgLoHalPc9mwB-107">
          <mxGeometry width="83" height="80" as="geometry" />
        </mxCell>
        <mxCell id="f9U-XKOlgLoHalPc9mwB-60" value="" style="group" vertex="1" connectable="0" parent="f9U-XKOlgLoHalPc9mwB-103">
          <mxGeometry x="37.5" y="39.370000000000005" width="7" height="1.26" as="geometry" />
        </mxCell>
        <mxCell id="f9U-XKOlgLoHalPc9mwB-61" value="" style="ellipse;whiteSpace=wrap;html=1;aspect=fixed;fillColor=#000000;" vertex="1" parent="f9U-XKOlgLoHalPc9mwB-60">
          <mxGeometry y="0.007227809582748712" width="1.2455443808344935" height="1.2455443808344935" as="geometry" />
        </mxCell>
        <mxCell id="f9U-XKOlgLoHalPc9mwB-62" value="" style="ellipse;whiteSpace=wrap;html=1;aspect=fixed;fillColor=#000000;" vertex="1" parent="f9U-XKOlgLoHalPc9mwB-60">
          <mxGeometry x="2.889679715302492" y="0.007227809582748712" width="1.2455443808344935" height="1.2455443808344935" as="geometry" />
        </mxCell>
        <mxCell id="f9U-XKOlgLoHalPc9mwB-63" value="" style="ellipse;whiteSpace=wrap;html=1;aspect=fixed;fillColor=#000000;" vertex="1" parent="f9U-XKOlgLoHalPc9mwB-60">
          <mxGeometry x="5.754448398576512" y="0.007227809582748712" width="1.2455443808344935" height="1.2455443808344935" as="geometry" />
        </mxCell>
        <mxCell id="f9U-XKOlgLoHalPc9mwB-101" value="" style="group" vertex="1" connectable="0" parent="f9U-XKOlgLoHalPc9mwB-103">
          <mxGeometry width="22" height="80" as="geometry" />
        </mxCell>
        <mxCell id="f9U-XKOlgLoHalPc9mwB-65" value="" style="rounded=0;whiteSpace=wrap;html=1;fillColor=#B3B3B3;strokeColor=none;fillStyle=auto;container=0;" vertex="1" parent="f9U-XKOlgLoHalPc9mwB-101">
          <mxGeometry width="10" height="80" as="geometry" />
        </mxCell>
        <mxCell id="f9U-XKOlgLoHalPc9mwB-66" value="" style="rounded=0;whiteSpace=wrap;html=1;fillColor=#99CCFF;strokeColor=none;fillStyle=auto;container=0;" vertex="1" parent="f9U-XKOlgLoHalPc9mwB-101">
          <mxGeometry x="12" width="10" height="80" as="geometry" />
        </mxCell>
        <mxCell id="f9U-XKOlgLoHalPc9mwB-102" value="" style="group" vertex="1" connectable="0" parent="f9U-XKOlgLoHalPc9mwB-103">
          <mxGeometry x="61" y="15" width="22" height="50" as="geometry" />
        </mxCell>
        <mxCell id="f9U-XKOlgLoHalPc9mwB-69" value="" style="rounded=0;whiteSpace=wrap;html=1;fillColor=#B3B3B3;strokeColor=none;fillStyle=auto;movable=1;resizable=1;rotatable=1;deletable=1;editable=1;locked=0;connectable=1;container=0;" vertex="1" parent="f9U-XKOlgLoHalPc9mwB-102">
          <mxGeometry width="10" height="50" as="geometry" />
        </mxCell>
        <mxCell id="f9U-XKOlgLoHalPc9mwB-70" value="" style="rounded=0;whiteSpace=wrap;html=1;fillColor=#99CCFF;strokeColor=none;fillStyle=auto;movable=1;resizable=1;rotatable=1;deletable=1;editable=1;locked=0;connectable=1;container=0;" vertex="1" parent="f9U-XKOlgLoHalPc9mwB-102">
          <mxGeometry x="12" width="10" height="50" as="geometry" />
        </mxCell>
        <mxCell id="f9U-XKOlgLoHalPc9mwB-106" value="" style="group" vertex="1" connectable="0" parent="f9U-XKOlgLoHalPc9mwB-107">
          <mxGeometry x="143" width="83" height="80" as="geometry" />
        </mxCell>
        <mxCell id="f9U-XKOlgLoHalPc9mwB-73" value="" style="group;rotation=-180;" vertex="1" connectable="0" parent="f9U-XKOlgLoHalPc9mwB-106">
          <mxGeometry x="37.5" y="39.370000000000005" width="7.2455443808344935" height="1.26" as="geometry" />
        </mxCell>
        <mxCell id="f9U-XKOlgLoHalPc9mwB-74" value="" style="ellipse;whiteSpace=wrap;html=1;aspect=fixed;fillColor=#000000;rotation=-180;" vertex="1" parent="f9U-XKOlgLoHalPc9mwB-73">
          <mxGeometry x="6" y="0.007227809582748712" width="1.2455443808344935" height="1.2455443808344935" as="geometry" />
        </mxCell>
        <mxCell id="f9U-XKOlgLoHalPc9mwB-75" value="" style="ellipse;whiteSpace=wrap;html=1;aspect=fixed;fillColor=#000000;rotation=-180;" vertex="1" parent="f9U-XKOlgLoHalPc9mwB-73">
          <mxGeometry x="3" y="0.007227809582748712" width="1.2455443808344935" height="1.2455443808344935" as="geometry" />
        </mxCell>
        <mxCell id="f9U-XKOlgLoHalPc9mwB-76" value="" style="ellipse;whiteSpace=wrap;html=1;aspect=fixed;fillColor=#000000;rotation=-180;" vertex="1" parent="f9U-XKOlgLoHalPc9mwB-73">
          <mxGeometry y="0.007227809582748712" width="1.2455443808344935" height="1.2455443808344935" as="geometry" />
        </mxCell>
        <mxCell id="f9U-XKOlgLoHalPc9mwB-104" value="" style="group" vertex="1" connectable="0" parent="f9U-XKOlgLoHalPc9mwB-106">
          <mxGeometry x="61" width="22" height="80" as="geometry" />
        </mxCell>
        <mxCell id="f9U-XKOlgLoHalPc9mwB-78" value="" style="rounded=0;whiteSpace=wrap;html=1;fillColor=#B3B3B3;strokeColor=none;fillStyle=auto;container=0;rotation=-180;" vertex="1" parent="f9U-XKOlgLoHalPc9mwB-104">
          <mxGeometry x="12" width="10" height="80" as="geometry" />
        </mxCell>
        <mxCell id="f9U-XKOlgLoHalPc9mwB-79" value="" style="rounded=0;whiteSpace=wrap;html=1;fillColor=#99CCFF;strokeColor=none;fillStyle=auto;container=0;rotation=-180;" vertex="1" parent="f9U-XKOlgLoHalPc9mwB-104">
          <mxGeometry width="10" height="80" as="geometry" />
        </mxCell>
        <mxCell id="f9U-XKOlgLoHalPc9mwB-105" value="" style="group" vertex="1" connectable="0" parent="f9U-XKOlgLoHalPc9mwB-106">
          <mxGeometry y="15" width="22" height="50" as="geometry" />
        </mxCell>
        <mxCell id="f9U-XKOlgLoHalPc9mwB-82" value="" style="rounded=0;whiteSpace=wrap;html=1;fillColor=#B3B3B3;strokeColor=none;fillStyle=auto;movable=1;resizable=1;rotatable=1;deletable=1;editable=1;locked=0;connectable=1;container=0;rotation=-180;" vertex="1" parent="f9U-XKOlgLoHalPc9mwB-105">
          <mxGeometry x="12" width="10" height="50" as="geometry" />
        </mxCell>
        <mxCell id="f9U-XKOlgLoHalPc9mwB-83" value="" style="rounded=0;whiteSpace=wrap;html=1;fillColor=#99CCFF;strokeColor=none;fillStyle=auto;movable=1;resizable=1;rotatable=1;deletable=1;editable=1;locked=0;connectable=1;container=0;rotation=-180;" vertex="1" parent="f9U-XKOlgLoHalPc9mwB-105">
          <mxGeometry width="10" height="50" as="geometry" />
        </mxCell>
      </root>
    </mxGraphModel>
  </diagram>
  <diagram id="L9yYZaX7LdP6ye6FGvya" name="第 2 页">
    <mxGraphModel dx="437" dy="275" grid="1" gridSize="10" guides="1" tooltips="1" connect="1" arrows="1" fold="1" page="1" pageScale="1" pageWidth="827" pageHeight="1169" math="0" shadow="0">
      <root>
        <mxCell id="0" />
        <mxCell id="1" parent="0" />
        <mxCell id="7n9Mfhwpt2fX99YuPON--12" value="" style="group" vertex="1" connectable="0" parent="1">
          <mxGeometry x="152" y="160" width="83" height="80" as="geometry" />
        </mxCell>
        <mxCell id="7n9Mfhwpt2fX99YuPON--1" value="" style="group" vertex="1" connectable="0" parent="7n9Mfhwpt2fX99YuPON--12">
          <mxGeometry x="38" y="39.370000000000005" width="7" height="1.26" as="geometry" />
        </mxCell>
        <mxCell id="7n9Mfhwpt2fX99YuPON--2" value="" style="ellipse;whiteSpace=wrap;html=1;aspect=fixed;fillColor=#000000;" vertex="1" parent="7n9Mfhwpt2fX99YuPON--1">
          <mxGeometry width="1.2455443808344935" height="1.2455443808344935" as="geometry" />
        </mxCell>
        <mxCell id="7n9Mfhwpt2fX99YuPON--3" value="" style="ellipse;whiteSpace=wrap;html=1;aspect=fixed;fillColor=#000000;" vertex="1" parent="7n9Mfhwpt2fX99YuPON--1">
          <mxGeometry x="2.889679715302492" width="1.2455443808344935" height="1.2455443808344935" as="geometry" />
        </mxCell>
        <mxCell id="7n9Mfhwpt2fX99YuPON--4" value="" style="ellipse;whiteSpace=wrap;html=1;aspect=fixed;fillColor=#000000;" vertex="1" parent="7n9Mfhwpt2fX99YuPON--1">
          <mxGeometry x="5.754448398576512" width="1.2455443808344935" height="1.2455443808344935" as="geometry" />
        </mxCell>
        <mxCell id="7n9Mfhwpt2fX99YuPON--10" value="" style="group" vertex="1" connectable="0" parent="7n9Mfhwpt2fX99YuPON--12">
          <mxGeometry width="22" height="80" as="geometry" />
        </mxCell>
        <mxCell id="7n9Mfhwpt2fX99YuPON--8" value="" style="rounded=0;whiteSpace=wrap;html=1;fillColor=#B3B3B3;strokeColor=none;fillStyle=auto;container=0;" vertex="1" parent="7n9Mfhwpt2fX99YuPON--10">
          <mxGeometry width="10" height="80" as="geometry" />
        </mxCell>
        <mxCell id="7n9Mfhwpt2fX99YuPON--9" value="" style="rounded=0;whiteSpace=wrap;html=1;fillColor=#66B2FF;strokeColor=none;fillStyle=auto;container=0;" vertex="1" parent="7n9Mfhwpt2fX99YuPON--10">
          <mxGeometry x="12" width="10" height="80" as="geometry" />
        </mxCell>
        <mxCell id="7n9Mfhwpt2fX99YuPON--11" value="" style="group" vertex="1" connectable="0" parent="7n9Mfhwpt2fX99YuPON--12">
          <mxGeometry x="61" y="15" width="22" height="50" as="geometry" />
        </mxCell>
        <mxCell id="7n9Mfhwpt2fX99YuPON--6" value="" style="rounded=0;whiteSpace=wrap;html=1;fillColor=#B3B3B3;strokeColor=none;fillStyle=auto;movable=1;resizable=1;rotatable=1;deletable=1;editable=1;locked=0;connectable=1;container=0;" vertex="1" parent="7n9Mfhwpt2fX99YuPON--11">
          <mxGeometry width="10" height="50" as="geometry" />
        </mxCell>
        <mxCell id="7n9Mfhwpt2fX99YuPON--7" value="" style="rounded=0;whiteSpace=wrap;html=1;fillColor=#66B2FF;strokeColor=none;fillStyle=auto;movable=1;resizable=1;rotatable=1;deletable=1;editable=1;locked=0;connectable=1;container=0;" vertex="1" parent="7n9Mfhwpt2fX99YuPON--11">
          <mxGeometry x="12" width="10" height="50" as="geometry" />
        </mxCell>
      </root>
    </mxGraphModel>
  </diagram>
</mxfile>
